<svg width="11" height="14" viewBox="0 0 11 14" fill="none" xmlns="http://www.w3.org/2000/svg">
<path d="M10.6667 14H9.33333V12.6667C9.33333 11.5621 8.43793 10.6667 7.33333 10.6667H3.33333C2.22877 10.6667 1.33333 11.5621 1.33333 12.6667V14H0V12.6667C0 10.8257 1.49239 9.33333 3.33333 9.33333H7.33333C9.17427 9.33333 10.6667 10.8257 10.6667 12.6667V14ZM5.33333 8C3.12419 8 1.33333 6.20913 1.33333 4C1.33333 1.79086 3.12419 0 5.33333 0C7.54247 0 9.33333 1.79086 9.33333 4C9.33333 6.20913 7.54247 8 5.33333 8ZM5.33333 6.66667C6.80607 6.66667 8 5.47276 8 4C8 2.52724 6.80607 1.33333 5.33333 1.33333C3.86057 1.33333 2.66667 2.52724 2.66667 4C2.66667 5.47276 3.86057 6.66667 5.33333 6.66667Z" fill="white"/>
</svg>
